<svg width="30" height="21" viewBox="0 0 30 21" fill="none" xmlns="http://www.w3.org/2000/svg">
<path d="M17.6667 19.1236H12.3334C9.5044 19.1236 6.79126 17.9998 4.79089 15.9994C2.7905 13.999 1.66669 11.2859 1.66669 8.45695V1.79028H7.00002V8.45695C7.00002 9.87143 7.56192 11.228 8.56215 12.2281C9.56231 13.2284 10.9189 13.7903 12.3334 13.7903V1.79028H17.6667V7.79028L17.7067 7.78495C19.168 7.60263 20.5125 6.89276 21.4873 5.78884C22.462 4.68491 22.9999 3.26297 23 1.79028H28.3334L27.8774 4.07158C27.6042 5.43706 27.0229 6.72209 26.1776 7.82868C25.3324 8.93527 24.2455 9.83425 23 10.457C24.2111 10.8605 25.2915 11.5821 26.128 12.5465C26.9645 13.5108 27.5263 14.6823 27.7547 15.9383L28.3334 19.1236H23C22.9999 17.6509 22.462 16.229 21.4873 15.1251C20.5125 14.0211 19.168 13.3113 17.7067 13.129V19.129L17.6667 19.1236Z" stroke="#F0E3CA" stroke-width="3" stroke-linecap="round" stroke-linejoin="round"/>
</svg>
