<svg width="32" height="33" viewBox="0 0 32 33" fill="none" xmlns="http://www.w3.org/2000/svg">
<path d="M26.6667 30.1237H5.33335C4.62611 30.1237 3.94783 29.8427 3.44774 29.3426C2.94764 28.8425 2.66669 28.1642 2.66669 27.457V12.8556C2.68885 12.4149 2.81839 11.9863 3.04404 11.607C3.26968 11.2277 3.58458 10.9094 3.96135 10.6796L14.628 4.27965C15.0423 4.03124 15.5163 3.90002 15.9993 3.90002C16.4824 3.90002 16.9564 4.03124 17.3707 4.27965L28.0374 10.6796C28.8386 11.1637 29.3307 12.0303 29.3334 12.9663V27.457C29.3334 28.1642 29.0524 28.8425 28.5523 29.3426C28.0522 29.8427 27.374 30.1237 26.6667 30.1237ZM5.33335 13.9477V27.457H26.6667V13.9477L16 21.0583L5.33335 13.9477ZM16 6.56632L7.08802 11.913L16 17.8543L24.9107 11.913L16 6.56632Z" fill="#F0E3CA"/>
</svg>
