<?xml version="1.0" encoding="utf-8"?>
<!-- Generator: Adobe Illustrator 24.1.2, SVG Export Plug-In . SVG Version: 6.00 Build 0)  -->
<svg version="1.1" id="Layer_1" xmlns:svg="http://www.w3.org/2000/svg"
	 xmlns="http://www.w3.org/2000/svg" xmlns:xlink="http://www.w3.org/1999/xlink" x="0px" y="0px" viewBox="0 0 120 110"
	 style="enable-background:new 0 0 120 110;" xml:space="preserve">
<style type="text/css">
	.st0{fill:#FF8303;fill-opacity:0.82;}
	.st1{fill:#F0E3CA;fill-opacity:0.76;}
	.st2{display:none;}
</style>
<symbol  id="svg_5" viewBox="-44.3 -54.2 88.6 108.4">
	<path id="svg_2_1_" class="st0" d="M26.3-51.5C50.4-40.6,44.9-23,40.1,7.3c-4.8,30.3,0.6,39.8-28.8,46.4
		c-29.4,6.6-66.4-53.3-52.6-72.4C-27.5-37.7,2.3-62.4,26.3-51.5z"/>
</symbol>
<g>
	<path id="svg_1" class="st1" d="M57.5,2.9c27.8-1.8,22.7,19.7,38.2,45.6c15.5,25.9,26.3,31,5.1,49c-21.1,18-93-6.1-92.1-34.1
		C9.5,35.4,29.7,4.7,57.5,2.9z"/>
	<g id="svg_4" class="st2">
	</g>
	
		<use xlink:href="#svg_5"  width="88.6" height="108.4" id="svg_6" x="-44.3" y="-54.2" transform="matrix(6.980099e-02 -1.071 1.0527 6.860644e-02 60.0436 55.4403)" style="overflow:visible;"/>
	<g id="svg_7" class="st2">
	</g>
</g>
</svg>
